<mxfile host="app.diagrams.net" modified="2024-01-30T11:21:59.341Z" agent="Mozilla/5.0 (Windows NT 10.0; Win64; x64) AppleWebKit/537.36 (KHTML, like Gecko) Chrome/121.0.0.0 Safari/537.36" etag="rNNXMXHMsRGjjbyEP8pG" version="23.0.2" type="device" pages="3">
  <diagram id="C5RBs43oDa-KdzZeNtuy" name="Page-1">
    <mxGraphModel dx="1418" dy="723" grid="1" gridSize="10" guides="1" tooltips="1" connect="1" arrows="1" fold="1" page="1" pageScale="1" pageWidth="827" pageHeight="1169" math="0" shadow="0">
      <root>
        <mxCell id="WIyWlLk6GJQsqaUBKTNV-0" />
        <mxCell id="WIyWlLk6GJQsqaUBKTNV-1" parent="WIyWlLk6GJQsqaUBKTNV-0" />
        <mxCell id="mnehjeZ3O1_cwlT7nOx8-14" style="edgeStyle=orthogonalEdgeStyle;rounded=0;orthogonalLoop=1;jettySize=auto;html=1;exitX=0.5;exitY=1;exitDx=0;exitDy=0;entryX=0.5;entryY=0;entryDx=0;entryDy=0;" parent="WIyWlLk6GJQsqaUBKTNV-1" source="WIyWlLk6GJQsqaUBKTNV-3" target="mnehjeZ3O1_cwlT7nOx8-7" edge="1">
          <mxGeometry relative="1" as="geometry">
            <mxPoint x="415" y="40" as="targetPoint" />
          </mxGeometry>
        </mxCell>
        <mxCell id="WIyWlLk6GJQsqaUBKTNV-3" value="TRY database (data requested on ...),&amp;nbsp; received dataset contained 94230 &#39;&lt;b style=&quot;border-color: var(--border-color); font-size: 11.5px;&quot;&gt;Accepted species names&#39;&amp;nbsp;&lt;/b&gt;and 37 traits" style="rounded=1;whiteSpace=wrap;html=1;fontSize=11.5;glass=0;strokeWidth=1;shadow=0;" parent="WIyWlLk6GJQsqaUBKTNV-1" vertex="1">
          <mxGeometry x="35.25" y="40" width="759.75" height="40" as="geometry" />
        </mxCell>
        <mxCell id="WIyWlLk6GJQsqaUBKTNV-11" value="Remaining: 28 traits and [&amp;nbsp; &amp;nbsp; ] &quot;Accepted species names&quot;,&amp;nbsp; were matched against the WFO backbone" style="rounded=1;whiteSpace=wrap;html=1;fontSize=11.5;glass=0;strokeWidth=1;shadow=0;" parent="WIyWlLk6GJQsqaUBKTNV-1" vertex="1">
          <mxGeometry x="35" y="160" width="760" height="40" as="geometry" />
        </mxCell>
        <mxCell id="qjvEbnhI41lJ3wAf2mKK-4" style="edgeStyle=orthogonalEdgeStyle;rounded=0;orthogonalLoop=1;jettySize=auto;html=1;exitX=0.5;exitY=1;exitDx=0;exitDy=0;fontSize=11.5;" parent="WIyWlLk6GJQsqaUBKTNV-1" edge="1">
          <mxGeometry relative="1" as="geometry">
            <mxPoint x="608" y="140" as="sourcePoint" />
            <mxPoint x="608" y="140" as="targetPoint" />
          </mxGeometry>
        </mxCell>
        <mxCell id="qjvEbnhI41lJ3wAf2mKK-6" value="With a direct match" style="rounded=1;whiteSpace=wrap;html=1;fontSize=11.5;" parent="WIyWlLk6GJQsqaUBKTNV-1" vertex="1">
          <mxGeometry x="35" y="220" width="350" height="40" as="geometry" />
        </mxCell>
        <mxCell id="mnehjeZ3O1_cwlT7nOx8-4" style="edgeStyle=orthogonalEdgeStyle;rounded=0;orthogonalLoop=1;jettySize=auto;html=1;exitX=0.5;exitY=1;exitDx=0;exitDy=0;entryX=0.5;entryY=0;entryDx=0;entryDy=0;" parent="WIyWlLk6GJQsqaUBKTNV-1" source="qjvEbnhI41lJ3wAf2mKK-9" target="mnehjeZ3O1_cwlT7nOx8-0" edge="1">
          <mxGeometry relative="1" as="geometry" />
        </mxCell>
        <mxCell id="qjvEbnhI41lJ3wAf2mKK-9" value="Without a direct match n = 3343" style="rounded=1;whiteSpace=wrap;html=1;fontSize=11.5;" parent="WIyWlLk6GJQsqaUBKTNV-1" vertex="1">
          <mxGeometry x="445" y="220" width="350" height="40" as="geometry" />
        </mxCell>
        <mxCell id="qjvEbnhI41lJ3wAf2mKK-10" value="Appendices, subspecies, varieties and annotation indication a hybrid (_x) removed, names matched again" style="rounded=1;whiteSpace=wrap;html=1;fontSize=11.5;" parent="WIyWlLk6GJQsqaUBKTNV-1" vertex="1">
          <mxGeometry x="443.25" y="340" width="350" height="50" as="geometry" />
        </mxCell>
        <mxCell id="qjvEbnhI41lJ3wAf2mKK-20" value="" style="edgeStyle=orthogonalEdgeStyle;rounded=0;orthogonalLoop=1;jettySize=auto;html=1;entryX=0;entryY=0.491;entryDx=0;entryDy=0;fontSize=11.5;exitX=0.529;exitY=0.989;exitDx=0;exitDy=0;exitPerimeter=0;entryPerimeter=0;" parent="WIyWlLk6GJQsqaUBKTNV-1" source="qjvEbnhI41lJ3wAf2mKK-11" target="qjvEbnhI41lJ3wAf2mKK-17" edge="1">
          <mxGeometry relative="1" as="geometry">
            <mxPoint x="489.74" y="460" as="sourcePoint" />
            <mxPoint x="529.74" y="500" as="targetPoint" />
            <Array as="points">
              <mxPoint x="482.25" y="490" />
              <mxPoint x="493.25" y="490" />
            </Array>
          </mxGeometry>
        </mxCell>
        <mxCell id="qjvEbnhI41lJ3wAf2mKK-11" value="No match found n = 2388, fuzzy matching&amp;nbsp;" style="rounded=1;whiteSpace=wrap;html=1;fontSize=11.5;" parent="WIyWlLk6GJQsqaUBKTNV-1" vertex="1">
          <mxGeometry x="363.25" y="410" width="225" height="40" as="geometry" />
        </mxCell>
        <mxCell id="qjvEbnhI41lJ3wAf2mKK-12" value="Match found n = 914" style="rounded=1;whiteSpace=wrap;html=1;fontSize=11.5;" parent="WIyWlLk6GJQsqaUBKTNV-1" vertex="1">
          <mxGeometry x="648.25" y="410" width="145" height="40" as="geometry" />
        </mxCell>
        <mxCell id="qjvEbnhI41lJ3wAf2mKK-16" value="Unplausible, multiple, and matches with Levenstein distance of &amp;gt; 2 removed" style="rounded=1;whiteSpace=wrap;html=1;fontSize=11.5;" parent="WIyWlLk6GJQsqaUBKTNV-1" vertex="1">
          <mxGeometry x="243.25" y="469.96000000000004" width="210" height="40" as="geometry" />
        </mxCell>
        <mxCell id="qjvEbnhI41lJ3wAf2mKK-17" value="Remaining matches n =" style="rounded=1;whiteSpace=wrap;html=1;fontSize=11.5;" parent="WIyWlLk6GJQsqaUBKTNV-1" vertex="1">
          <mxGeometry x="513.25" y="469.96000000000004" width="180" height="40" as="geometry" />
        </mxCell>
        <mxCell id="qjvEbnhI41lJ3wAf2mKK-25" value="" style="endArrow=none;html=1;rounded=0;edgeStyle=orthogonalEdgeStyle;entryX=0.5;entryY=1;entryDx=0;entryDy=0;fontSize=11.5;" parent="WIyWlLk6GJQsqaUBKTNV-1" edge="1">
          <mxGeometry width="50" height="50" relative="1" as="geometry">
            <mxPoint x="600" y="530" as="sourcePoint" />
            <mxPoint x="717.75" y="449.99999999999994" as="targetPoint" />
            <Array as="points">
              <mxPoint x="718.25" y="530" />
              <mxPoint x="718.25" y="450" />
            </Array>
          </mxGeometry>
        </mxCell>
        <mxCell id="qjvEbnhI41lJ3wAf2mKK-98" style="edgeStyle=orthogonalEdgeStyle;rounded=0;orthogonalLoop=1;jettySize=auto;html=1;exitX=0.5;exitY=1;exitDx=0;exitDy=0;entryX=0.5;entryY=0;entryDx=0;entryDy=0;" parent="WIyWlLk6GJQsqaUBKTNV-1" source="qjvEbnhI41lJ3wAf2mKK-14" target="qjvEbnhI41lJ3wAf2mKK-45" edge="1">
          <mxGeometry relative="1" as="geometry" />
        </mxCell>
        <mxCell id="qjvEbnhI41lJ3wAf2mKK-14" value="n =&amp;nbsp;65340 try_wf_clean_complete" style="rounded=1;whiteSpace=wrap;html=1;fontSize=11.5;" parent="WIyWlLk6GJQsqaUBKTNV-1" vertex="1">
          <mxGeometry x="33.25" y="549.96" width="760" height="40" as="geometry" />
        </mxCell>
        <mxCell id="qjvEbnhI41lJ3wAf2mKK-27" value="" style="endArrow=none;html=1;rounded=0;edgeStyle=orthogonalEdgeStyle;fontSize=11.5;" parent="WIyWlLk6GJQsqaUBKTNV-1" edge="1">
          <mxGeometry width="50" height="50" relative="1" as="geometry">
            <mxPoint x="208.25" y="529.96" as="sourcePoint" />
            <mxPoint x="603.25" y="509.96000000000004" as="targetPoint" />
            <Array as="points">
              <mxPoint x="603.25" y="529.96" />
            </Array>
          </mxGeometry>
        </mxCell>
        <mxCell id="qjvEbnhI41lJ3wAf2mKK-30" value="" style="endArrow=classic;html=1;rounded=0;exitX=0.5;exitY=1;exitDx=0;exitDy=0;fontSize=11.5;entryX=0.23;entryY=-0.006;entryDx=0;entryDy=0;entryPerimeter=0;" parent="WIyWlLk6GJQsqaUBKTNV-1" source="qjvEbnhI41lJ3wAf2mKK-6" target="qjvEbnhI41lJ3wAf2mKK-14" edge="1">
          <mxGeometry width="50" height="50" relative="1" as="geometry">
            <mxPoint x="443.25" y="545" as="sourcePoint" />
            <mxPoint x="218.25" y="585" as="targetPoint" />
          </mxGeometry>
        </mxCell>
        <mxCell id="qjvEbnhI41lJ3wAf2mKK-32" value="" style="endArrow=classic;html=1;rounded=0;exitX=0.5;exitY=1;exitDx=0;exitDy=0;entryX=0;entryY=0.5;entryDx=0;entryDy=0;edgeStyle=orthogonalEdgeStyle;fontSize=11.5;" parent="WIyWlLk6GJQsqaUBKTNV-1" edge="1">
          <mxGeometry width="50" height="50" relative="1" as="geometry">
            <mxPoint x="415.00000000000006" y="200" as="sourcePoint" />
            <mxPoint x="445" y="240" as="targetPoint" />
            <Array as="points">
              <mxPoint x="415" y="240" />
            </Array>
          </mxGeometry>
        </mxCell>
        <mxCell id="qjvEbnhI41lJ3wAf2mKK-33" value="" style="endArrow=classic;html=1;rounded=0;entryX=1;entryY=0.5;entryDx=0;entryDy=0;edgeStyle=orthogonalEdgeStyle;fontSize=11.5;" parent="WIyWlLk6GJQsqaUBKTNV-1" target="qjvEbnhI41lJ3wAf2mKK-6" edge="1">
          <mxGeometry width="50" height="50" relative="1" as="geometry">
            <mxPoint x="415" y="200" as="sourcePoint" />
            <mxPoint x="387.00000000000006" y="240" as="targetPoint" />
            <Array as="points">
              <mxPoint x="415" y="240" />
            </Array>
          </mxGeometry>
        </mxCell>
        <mxCell id="qjvEbnhI41lJ3wAf2mKK-34" value="" style="endArrow=classic;html=1;rounded=0;exitX=0.5;exitY=1;exitDx=0;exitDy=0;entryX=0;entryY=0.5;entryDx=0;entryDy=0;edgeStyle=orthogonalEdgeStyle;fontSize=11.5;" parent="WIyWlLk6GJQsqaUBKTNV-1" source="qjvEbnhI41lJ3wAf2mKK-10" target="qjvEbnhI41lJ3wAf2mKK-12" edge="1">
          <mxGeometry width="50" height="50" relative="1" as="geometry">
            <mxPoint x="543.25" y="405" as="sourcePoint" />
            <mxPoint x="543.25" y="485" as="targetPoint" />
          </mxGeometry>
        </mxCell>
        <mxCell id="qjvEbnhI41lJ3wAf2mKK-35" value="" style="endArrow=classic;html=1;rounded=0;exitX=0.5;exitY=1;exitDx=0;exitDy=0;entryX=1;entryY=0.5;entryDx=0;entryDy=0;edgeStyle=orthogonalEdgeStyle;fontSize=11.5;" parent="WIyWlLk6GJQsqaUBKTNV-1" source="qjvEbnhI41lJ3wAf2mKK-10" target="qjvEbnhI41lJ3wAf2mKK-11" edge="1">
          <mxGeometry width="50" height="50" relative="1" as="geometry">
            <mxPoint x="543.25" y="405" as="sourcePoint" />
            <mxPoint x="453.25" y="465" as="targetPoint" />
          </mxGeometry>
        </mxCell>
        <mxCell id="qjvEbnhI41lJ3wAf2mKK-40" value="" style="endArrow=classic;html=1;rounded=0;entryX=1;entryY=0.5;entryDx=0;entryDy=0;fontSize=11.5;" parent="WIyWlLk6GJQsqaUBKTNV-1" target="qjvEbnhI41lJ3wAf2mKK-16" edge="1">
          <mxGeometry width="50" height="50" relative="1" as="geometry">
            <mxPoint x="483.25" y="489.96000000000004" as="sourcePoint" />
            <mxPoint x="393.25" y="479.96000000000004" as="targetPoint" />
          </mxGeometry>
        </mxCell>
        <mxCell id="qjvEbnhI41lJ3wAf2mKK-121" style="edgeStyle=orthogonalEdgeStyle;rounded=0;orthogonalLoop=1;jettySize=auto;html=1;entryX=0.5;entryY=0;entryDx=0;entryDy=0;" parent="WIyWlLk6GJQsqaUBKTNV-1" source="qjvEbnhI41lJ3wAf2mKK-44" target="qjvEbnhI41lJ3wAf2mKK-117" edge="1">
          <mxGeometry relative="1" as="geometry">
            <Array as="points">
              <mxPoint x="258.25" y="695" />
              <mxPoint x="258.25" y="695" />
            </Array>
          </mxGeometry>
        </mxCell>
        <mxCell id="qjvEbnhI41lJ3wAf2mKK-44" value="Names that had multiple&amp;nbsp; accepted/unchecked matches n = 2353" style="rounded=1;whiteSpace=wrap;html=1;fontSize=11.5;" parent="WIyWlLk6GJQsqaUBKTNV-1" vertex="1">
          <mxGeometry x="188.25" y="609.96" width="140" height="80" as="geometry" />
        </mxCell>
        <mxCell id="qjvEbnhI41lJ3wAf2mKK-60" value="" style="edgeStyle=orthogonalEdgeStyle;rounded=0;orthogonalLoop=1;jettySize=auto;html=1;fontSize=11.5;" parent="WIyWlLk6GJQsqaUBKTNV-1" source="qjvEbnhI41lJ3wAf2mKK-45" target="qjvEbnhI41lJ3wAf2mKK-59" edge="1">
          <mxGeometry relative="1" as="geometry" />
        </mxCell>
        <mxCell id="qjvEbnhI41lJ3wAf2mKK-45" value="Names that had one accepted/unchecked match and one synonym match&amp;nbsp; n = 3344" style="rounded=1;whiteSpace=wrap;html=1;fontSize=11.5;" parent="WIyWlLk6GJQsqaUBKTNV-1" vertex="1">
          <mxGeometry x="343.75" y="609.96" width="139" height="80" as="geometry" />
        </mxCell>
        <mxCell id="qjvEbnhI41lJ3wAf2mKK-64" value="" style="edgeStyle=orthogonalEdgeStyle;rounded=0;orthogonalLoop=1;jettySize=auto;html=1;fontSize=11.5;" parent="WIyWlLk6GJQsqaUBKTNV-1" source="qjvEbnhI41lJ3wAf2mKK-46" target="qjvEbnhI41lJ3wAf2mKK-63" edge="1">
          <mxGeometry relative="1" as="geometry" />
        </mxCell>
        <mxCell id="qjvEbnhI41lJ3wAf2mKK-46" value="Names that had one accepted/unchecked match&amp;nbsp; n =&amp;nbsp;58794" style="rounded=1;whiteSpace=wrap;html=1;fontSize=11.5;" parent="WIyWlLk6GJQsqaUBKTNV-1" vertex="1">
          <mxGeometry x="33.25" y="609.96" width="140" height="80" as="geometry" />
        </mxCell>
        <mxCell id="qjvEbnhI41lJ3wAf2mKK-97" style="edgeStyle=orthogonalEdgeStyle;rounded=0;orthogonalLoop=1;jettySize=auto;html=1;exitX=0.5;exitY=1;exitDx=0;exitDy=0;entryX=0.5;entryY=0;entryDx=0;entryDy=0;" parent="WIyWlLk6GJQsqaUBKTNV-1" source="qjvEbnhI41lJ3wAf2mKK-47" target="qjvEbnhI41lJ3wAf2mKK-96" edge="1">
          <mxGeometry relative="1" as="geometry" />
        </mxCell>
        <mxCell id="qjvEbnhI41lJ3wAf2mKK-47" value="Names that had one synonym match n = 4036" style="rounded=1;whiteSpace=wrap;html=1;fontSize=11.5;" parent="WIyWlLk6GJQsqaUBKTNV-1" vertex="1">
          <mxGeometry x="498.25" y="609.96" width="140" height="80" as="geometry" />
        </mxCell>
        <mxCell id="qjvEbnhI41lJ3wAf2mKK-66" value="" style="edgeStyle=orthogonalEdgeStyle;rounded=0;orthogonalLoop=1;jettySize=auto;html=1;fontSize=11.5;entryX=0.5;entryY=0;entryDx=0;entryDy=0;" parent="WIyWlLk6GJQsqaUBKTNV-1" source="qjvEbnhI41lJ3wAf2mKK-48" target="qjvEbnhI41lJ3wAf2mKK-68" edge="1">
          <mxGeometry relative="1" as="geometry">
            <mxPoint x="713.2500000000002" y="709.96" as="targetPoint" />
          </mxGeometry>
        </mxCell>
        <mxCell id="qjvEbnhI41lJ3wAf2mKK-48" value="Names that had multiple synonym matches n = 157" style="rounded=1;whiteSpace=wrap;html=1;fontSize=11.5;" parent="WIyWlLk6GJQsqaUBKTNV-1" vertex="1">
          <mxGeometry x="653.25" y="609.96" width="140" height="80" as="geometry" />
        </mxCell>
        <mxCell id="qjvEbnhI41lJ3wAf2mKK-50" value="" style="endArrow=classic;html=1;rounded=0;entryX=0.5;entryY=0;entryDx=0;entryDy=0;fontSize=11.5;" parent="WIyWlLk6GJQsqaUBKTNV-1" target="qjvEbnhI41lJ3wAf2mKK-46" edge="1">
          <mxGeometry width="50" height="50" relative="1" as="geometry">
            <mxPoint x="103.25" y="589.96" as="sourcePoint" />
            <mxPoint x="463.25" y="579.96" as="targetPoint" />
          </mxGeometry>
        </mxCell>
        <mxCell id="qjvEbnhI41lJ3wAf2mKK-51" value="" style="endArrow=classic;html=1;rounded=0;entryX=0.5;entryY=0;entryDx=0;entryDy=0;fontSize=11.5;" parent="WIyWlLk6GJQsqaUBKTNV-1" edge="1">
          <mxGeometry width="50" height="50" relative="1" as="geometry">
            <mxPoint x="253.05" y="589.96" as="sourcePoint" />
            <mxPoint x="253.05" y="609.96" as="targetPoint" />
          </mxGeometry>
        </mxCell>
        <mxCell id="qjvEbnhI41lJ3wAf2mKK-54" value="" style="endArrow=classic;html=1;rounded=0;entryX=0.5;entryY=0;entryDx=0;entryDy=0;fontSize=11.5;exitX=0.908;exitY=0.99;exitDx=0;exitDy=0;exitPerimeter=0;" parent="WIyWlLk6GJQsqaUBKTNV-1" source="qjvEbnhI41lJ3wAf2mKK-14" target="qjvEbnhI41lJ3wAf2mKK-48" edge="1">
          <mxGeometry width="50" height="50" relative="1" as="geometry">
            <mxPoint x="713.05" y="589.96" as="sourcePoint" />
            <mxPoint x="713.05" y="609.96" as="targetPoint" />
          </mxGeometry>
        </mxCell>
        <mxCell id="qjvEbnhI41lJ3wAf2mKK-59" value="Accepted/unchecked match was assumed to be the right one" style="rounded=1;whiteSpace=wrap;html=1;fontSize=11.5;" parent="WIyWlLk6GJQsqaUBKTNV-1" vertex="1">
          <mxGeometry x="343.25" y="709.96" width="139.5" height="60" as="geometry" />
        </mxCell>
        <mxCell id="qjvEbnhI41lJ3wAf2mKK-128" style="edgeStyle=orthogonalEdgeStyle;rounded=0;orthogonalLoop=1;jettySize=auto;html=1;exitX=0.5;exitY=1;exitDx=0;exitDy=0;entryX=0.5;entryY=0;entryDx=0;entryDy=0;" parent="WIyWlLk6GJQsqaUBKTNV-1" source="qjvEbnhI41lJ3wAf2mKK-63" target="qjvEbnhI41lJ3wAf2mKK-126" edge="1">
          <mxGeometry relative="1" as="geometry" />
        </mxCell>
        <mxCell id="qjvEbnhI41lJ3wAf2mKK-63" value="Names that had one accepted/unchecked match&amp;nbsp; n =&amp;nbsp;58794" style="rounded=1;whiteSpace=wrap;html=1;fontSize=11.5;" parent="WIyWlLk6GJQsqaUBKTNV-1" vertex="1">
          <mxGeometry x="33.25" y="709.96" width="140" height="60" as="geometry" />
        </mxCell>
        <mxCell id="qjvEbnhI41lJ3wAf2mKK-68" value="Only retaining entrees with a nomenclatural status of &quot;Valid&quot; or NA" style="rounded=1;whiteSpace=wrap;html=1;fontSize=11.5;" parent="WIyWlLk6GJQsqaUBKTNV-1" vertex="1">
          <mxGeometry x="653.25" y="709.96" width="140" height="60" as="geometry" />
        </mxCell>
        <mxCell id="qjvEbnhI41lJ3wAf2mKK-69" value="Removing entrees with a nomenclatural status of NA" style="rounded=1;whiteSpace=wrap;html=1;fontSize=11.5;" parent="WIyWlLk6GJQsqaUBKTNV-1" vertex="1">
          <mxGeometry x="653.25" y="870" width="140" height="60" as="geometry" />
        </mxCell>
        <mxCell id="qjvEbnhI41lJ3wAf2mKK-71" value="Only one remaining match n = 54" style="rounded=1;whiteSpace=wrap;html=1;fontSize=11.5;" parent="WIyWlLk6GJQsqaUBKTNV-1" vertex="1">
          <mxGeometry x="653.25" y="789.96" width="65" height="60.04" as="geometry" />
        </mxCell>
        <mxCell id="qjvEbnhI41lJ3wAf2mKK-72" value="Multiple matches n = 102" style="rounded=1;whiteSpace=wrap;html=1;fontSize=11.5;" parent="WIyWlLk6GJQsqaUBKTNV-1" vertex="1">
          <mxGeometry x="728.25" y="789.96" width="65" height="60.04" as="geometry" />
        </mxCell>
        <mxCell id="qjvEbnhI41lJ3wAf2mKK-73" value="" style="endArrow=classic;html=1;rounded=0;exitX=0.771;exitY=1;exitDx=0;exitDy=0;exitPerimeter=0;entryX=0.5;entryY=0;entryDx=0;entryDy=0;fontSize=11.5;" parent="WIyWlLk6GJQsqaUBKTNV-1" source="qjvEbnhI41lJ3wAf2mKK-68" target="qjvEbnhI41lJ3wAf2mKK-72" edge="1">
          <mxGeometry width="50" height="50" relative="1" as="geometry">
            <mxPoint x="583.25" y="799.96" as="sourcePoint" />
            <mxPoint x="633.25" y="749.96" as="targetPoint" />
          </mxGeometry>
        </mxCell>
        <mxCell id="qjvEbnhI41lJ3wAf2mKK-76" style="edgeStyle=orthogonalEdgeStyle;rounded=0;orthogonalLoop=1;jettySize=auto;html=1;entryX=0.771;entryY=0;entryDx=0;entryDy=0;entryPerimeter=0;fontSize=11.5;" parent="WIyWlLk6GJQsqaUBKTNV-1" source="qjvEbnhI41lJ3wAf2mKK-72" target="qjvEbnhI41lJ3wAf2mKK-69" edge="1">
          <mxGeometry relative="1" as="geometry" />
        </mxCell>
        <mxCell id="qjvEbnhI41lJ3wAf2mKK-88" value="" style="endArrow=classic;html=1;rounded=0;exitX=0.771;exitY=1;exitDx=0;exitDy=0;exitPerimeter=0;entryX=0.5;entryY=0;entryDx=0;entryDy=0;fontSize=11.5;" parent="WIyWlLk6GJQsqaUBKTNV-1" edge="1">
          <mxGeometry width="50" height="50" relative="1" as="geometry">
            <mxPoint x="685.67" y="769.96" as="sourcePoint" />
            <mxPoint x="685.67" y="789.96" as="targetPoint" />
          </mxGeometry>
        </mxCell>
        <mxCell id="qjvEbnhI41lJ3wAf2mKK-92" value="Only one remaining match n = 1325" style="rounded=1;whiteSpace=wrap;html=1;fontSize=11.5;" parent="WIyWlLk6GJQsqaUBKTNV-1" vertex="1">
          <mxGeometry x="188.25" y="790.96" width="65" height="60.04" as="geometry" />
        </mxCell>
        <mxCell id="qjvEbnhI41lJ3wAf2mKK-105" value="" style="edgeStyle=orthogonalEdgeStyle;rounded=0;orthogonalLoop=1;jettySize=auto;html=1;" parent="WIyWlLk6GJQsqaUBKTNV-1" source="qjvEbnhI41lJ3wAf2mKK-93" edge="1">
          <mxGeometry relative="1" as="geometry">
            <mxPoint x="295.76428571428573" y="870.9600000000003" as="targetPoint" />
          </mxGeometry>
        </mxCell>
        <mxCell id="qjvEbnhI41lJ3wAf2mKK-93" value="Multiple matches n = 907" style="rounded=1;whiteSpace=wrap;html=1;fontSize=11.5;" parent="WIyWlLk6GJQsqaUBKTNV-1" vertex="1">
          <mxGeometry x="263.25" y="790.96" width="65" height="60.04" as="geometry" />
        </mxCell>
        <mxCell id="qjvEbnhI41lJ3wAf2mKK-94" value="" style="endArrow=classic;html=1;rounded=0;exitX=0.767;exitY=1.005;exitDx=0;exitDy=0;exitPerimeter=0;entryX=0.5;entryY=0;entryDx=0;entryDy=0;fontSize=11.5;" parent="WIyWlLk6GJQsqaUBKTNV-1" source="qjvEbnhI41lJ3wAf2mKK-117" target="qjvEbnhI41lJ3wAf2mKK-93" edge="1">
          <mxGeometry width="50" height="50" relative="1" as="geometry">
            <mxPoint x="296.25" y="771" as="sourcePoint" />
            <mxPoint x="168.25" y="750.96" as="targetPoint" />
          </mxGeometry>
        </mxCell>
        <mxCell id="qjvEbnhI41lJ3wAf2mKK-95" value="" style="endArrow=classic;html=1;rounded=0;exitX=0.771;exitY=1;exitDx=0;exitDy=0;exitPerimeter=0;entryX=0.5;entryY=0;entryDx=0;entryDy=0;fontSize=11.5;" parent="WIyWlLk6GJQsqaUBKTNV-1" edge="1">
          <mxGeometry width="50" height="50" relative="1" as="geometry">
            <mxPoint x="220.66999999999996" y="770.96" as="sourcePoint" />
            <mxPoint x="220.66999999999996" y="790.96" as="targetPoint" />
          </mxGeometry>
        </mxCell>
        <mxCell id="qjvEbnhI41lJ3wAf2mKK-140" style="edgeStyle=orthogonalEdgeStyle;rounded=0;orthogonalLoop=1;jettySize=auto;html=1;exitX=0.5;exitY=1;exitDx=0;exitDy=0;entryX=0.5;entryY=0;entryDx=0;entryDy=0;" parent="WIyWlLk6GJQsqaUBKTNV-1" source="qjvEbnhI41lJ3wAf2mKK-96" target="qjvEbnhI41lJ3wAf2mKK-139" edge="1">
          <mxGeometry relative="1" as="geometry" />
        </mxCell>
        <mxCell id="qjvEbnhI41lJ3wAf2mKK-96" value="The accepted name of the synonym was retained" style="rounded=1;whiteSpace=wrap;html=1;fontSize=11.5;" parent="WIyWlLk6GJQsqaUBKTNV-1" vertex="1">
          <mxGeometry x="498.25" y="709.96" width="140" height="60" as="geometry" />
        </mxCell>
        <mxCell id="qjvEbnhI41lJ3wAf2mKK-99" value="" style="endArrow=classic;html=1;rounded=0;entryX=0.5;entryY=0;entryDx=0;entryDy=0;fontSize=11.5;exitX=0.908;exitY=0.99;exitDx=0;exitDy=0;exitPerimeter=0;" parent="WIyWlLk6GJQsqaUBKTNV-1" edge="1">
          <mxGeometry width="50" height="50" relative="1" as="geometry">
            <mxPoint x="568.08" y="589.96" as="sourcePoint" />
            <mxPoint x="568.08" y="609.96" as="targetPoint" />
          </mxGeometry>
        </mxCell>
        <mxCell id="qjvEbnhI41lJ3wAf2mKK-123" style="edgeStyle=orthogonalEdgeStyle;rounded=0;orthogonalLoop=1;jettySize=auto;html=1;exitX=0.5;exitY=1;exitDx=0;exitDy=0;entryX=0.5;entryY=0;entryDx=0;entryDy=0;" parent="WIyWlLk6GJQsqaUBKTNV-1" source="qjvEbnhI41lJ3wAf2mKK-111" target="qjvEbnhI41lJ3wAf2mKK-122" edge="1">
          <mxGeometry relative="1" as="geometry" />
        </mxCell>
        <mxCell id="qjvEbnhI41lJ3wAf2mKK-111" value="&quot;Valid&quot; matches retained" style="rounded=1;whiteSpace=wrap;html=1;fontSize=11.5;" parent="WIyWlLk6GJQsqaUBKTNV-1" vertex="1">
          <mxGeometry x="263.25" y="869.96" width="65" height="60.04" as="geometry" />
        </mxCell>
        <mxCell id="qjvEbnhI41lJ3wAf2mKK-117" value="&quot;Unchecked&quot; matches were removed&amp;nbsp;" style="rounded=1;whiteSpace=wrap;html=1;fontSize=11.5;" parent="WIyWlLk6GJQsqaUBKTNV-1" vertex="1">
          <mxGeometry x="188.25" y="709.96" width="140" height="60" as="geometry" />
        </mxCell>
        <mxCell id="qjvEbnhI41lJ3wAf2mKK-118" value="" style="endArrow=classic;html=1;rounded=0;exitX=0;exitY=0.5;exitDx=0;exitDy=0;entryX=0.5;entryY=1;entryDx=0;entryDy=0;edgeStyle=orthogonalEdgeStyle;" parent="WIyWlLk6GJQsqaUBKTNV-1" source="qjvEbnhI41lJ3wAf2mKK-111" target="qjvEbnhI41lJ3wAf2mKK-92" edge="1">
          <mxGeometry width="50" height="50" relative="1" as="geometry">
            <mxPoint x="333.25" y="820" as="sourcePoint" />
            <mxPoint x="203.25" y="870" as="targetPoint" />
          </mxGeometry>
        </mxCell>
        <mxCell id="qjvEbnhI41lJ3wAf2mKK-125" style="edgeStyle=orthogonalEdgeStyle;rounded=0;orthogonalLoop=1;jettySize=auto;html=1;exitX=0.5;exitY=1;exitDx=0;exitDy=0;entryX=0.5;entryY=0;entryDx=0;entryDy=0;" parent="WIyWlLk6GJQsqaUBKTNV-1" source="qjvEbnhI41lJ3wAf2mKK-122" target="qjvEbnhI41lJ3wAf2mKK-124" edge="1">
          <mxGeometry relative="1" as="geometry" />
        </mxCell>
        <mxCell id="qjvEbnhI41lJ3wAf2mKK-127" style="edgeStyle=orthogonalEdgeStyle;rounded=0;orthogonalLoop=1;jettySize=auto;html=1;entryX=1;entryY=0.5;entryDx=0;entryDy=0;" parent="WIyWlLk6GJQsqaUBKTNV-1" source="qjvEbnhI41lJ3wAf2mKK-122" target="qjvEbnhI41lJ3wAf2mKK-126" edge="1">
          <mxGeometry relative="1" as="geometry" />
        </mxCell>
        <mxCell id="qjvEbnhI41lJ3wAf2mKK-122" value="Multiple matches n = 1028" style="rounded=1;whiteSpace=wrap;html=1;fontSize=11.5;" parent="WIyWlLk6GJQsqaUBKTNV-1" vertex="1">
          <mxGeometry x="263.25" y="950" width="65" height="60.04" as="geometry" />
        </mxCell>
        <mxCell id="qjvEbnhI41lJ3wAf2mKK-124" value="Names saved" style="rounded=1;whiteSpace=wrap;html=1;fontSize=11.5;" parent="WIyWlLk6GJQsqaUBKTNV-1" vertex="1">
          <mxGeometry x="263.25" y="1029" width="65" height="60.04" as="geometry" />
        </mxCell>
        <mxCell id="qjvEbnhI41lJ3wAf2mKK-126" value="Combined n = 61147" style="rounded=1;whiteSpace=wrap;html=1;fontSize=11.5;" parent="WIyWlLk6GJQsqaUBKTNV-1" vertex="1">
          <mxGeometry x="33.25" y="950" width="140" height="60" as="geometry" />
        </mxCell>
        <mxCell id="qjvEbnhI41lJ3wAf2mKK-129" value="" style="endArrow=none;html=1;rounded=0;entryX=0;entryY=0.5;entryDx=0;entryDy=0;" parent="WIyWlLk6GJQsqaUBKTNV-1" target="qjvEbnhI41lJ3wAf2mKK-92" edge="1">
          <mxGeometry width="50" height="50" relative="1" as="geometry">
            <mxPoint x="103.25" y="821" as="sourcePoint" />
            <mxPoint x="383.25" y="940" as="targetPoint" />
          </mxGeometry>
        </mxCell>
        <mxCell id="qjvEbnhI41lJ3wAf2mKK-130" value="Only one remaining match n = 9" style="rounded=1;whiteSpace=wrap;html=1;fontSize=11.5;" parent="WIyWlLk6GJQsqaUBKTNV-1" vertex="1">
          <mxGeometry x="653.25" y="950" width="65" height="60.04" as="geometry" />
        </mxCell>
        <mxCell id="qjvEbnhI41lJ3wAf2mKK-131" value="" style="endArrow=classic;html=1;rounded=0;exitX=0.771;exitY=1;exitDx=0;exitDy=0;exitPerimeter=0;entryX=0.5;entryY=0;entryDx=0;entryDy=0;fontSize=11.5;" parent="WIyWlLk6GJQsqaUBKTNV-1" edge="1">
          <mxGeometry width="50" height="50" relative="1" as="geometry">
            <mxPoint x="685.5799999999999" y="930" as="sourcePoint" />
            <mxPoint x="685.5799999999999" y="950" as="targetPoint" />
          </mxGeometry>
        </mxCell>
        <mxCell id="qjvEbnhI41lJ3wAf2mKK-132" value="Multiple matches n = 91" style="rounded=1;whiteSpace=wrap;html=1;fontSize=11.5;" parent="WIyWlLk6GJQsqaUBKTNV-1" vertex="1">
          <mxGeometry x="728.25" y="950" width="65" height="60.04" as="geometry" />
        </mxCell>
        <mxCell id="qjvEbnhI41lJ3wAf2mKK-133" value="" style="endArrow=classic;html=1;rounded=0;exitX=0.771;exitY=1;exitDx=0;exitDy=0;exitPerimeter=0;entryX=0.5;entryY=0;entryDx=0;entryDy=0;fontSize=11.5;" parent="WIyWlLk6GJQsqaUBKTNV-1" edge="1">
          <mxGeometry width="50" height="50" relative="1" as="geometry">
            <mxPoint x="760.5799999999999" y="930" as="sourcePoint" />
            <mxPoint x="760.5799999999999" y="950" as="targetPoint" />
          </mxGeometry>
        </mxCell>
        <mxCell id="qjvEbnhI41lJ3wAf2mKK-134" value="Matches checked against accepted names in TRY" style="rounded=1;whiteSpace=wrap;html=1;fontSize=11.5;" parent="WIyWlLk6GJQsqaUBKTNV-1" vertex="1">
          <mxGeometry x="648.25" y="1029" width="140" height="60" as="geometry" />
        </mxCell>
        <mxCell id="qjvEbnhI41lJ3wAf2mKK-138" style="edgeStyle=orthogonalEdgeStyle;rounded=0;orthogonalLoop=1;jettySize=auto;html=1;exitX=0.5;exitY=1;exitDx=0;exitDy=0;entryX=0.804;entryY=0.002;entryDx=0;entryDy=0;entryPerimeter=0;" parent="WIyWlLk6GJQsqaUBKTNV-1" source="qjvEbnhI41lJ3wAf2mKK-132" target="qjvEbnhI41lJ3wAf2mKK-134" edge="1">
          <mxGeometry relative="1" as="geometry" />
        </mxCell>
        <mxCell id="qjvEbnhI41lJ3wAf2mKK-139" value="Multiple matched used to filter the accepted names belonging to the synonyms n = 4099 --&amp;gt; n = 4072" style="rounded=1;whiteSpace=wrap;html=1;fontSize=11.5;" parent="WIyWlLk6GJQsqaUBKTNV-1" vertex="1">
          <mxGeometry x="498.25" y="1029" width="140" height="60" as="geometry" />
        </mxCell>
        <mxCell id="qjvEbnhI41lJ3wAf2mKK-141" value="" style="endArrow=none;html=1;rounded=0;" parent="WIyWlLk6GJQsqaUBKTNV-1" edge="1">
          <mxGeometry width="50" height="50" relative="1" as="geometry">
            <mxPoint x="567.83" y="820.88" as="sourcePoint" />
            <mxPoint x="653.25" y="821" as="targetPoint" />
          </mxGeometry>
        </mxCell>
        <mxCell id="qjvEbnhI41lJ3wAf2mKK-142" value="" style="endArrow=none;html=1;rounded=0;" parent="WIyWlLk6GJQsqaUBKTNV-1" edge="1">
          <mxGeometry width="50" height="50" relative="1" as="geometry">
            <mxPoint x="567.83" y="979.74" as="sourcePoint" />
            <mxPoint x="653.25" y="979.8600000000001" as="targetPoint" />
          </mxGeometry>
        </mxCell>
        <mxCell id="qjvEbnhI41lJ3wAf2mKK-143" value="" style="endArrow=classic;html=1;rounded=0;exitX=1;exitY=0.5;exitDx=0;exitDy=0;entryX=0;entryY=0.5;entryDx=0;entryDy=0;" parent="WIyWlLk6GJQsqaUBKTNV-1" source="qjvEbnhI41lJ3wAf2mKK-124" target="qjvEbnhI41lJ3wAf2mKK-139" edge="1">
          <mxGeometry width="50" height="50" relative="1" as="geometry">
            <mxPoint x="403.25" y="975" as="sourcePoint" />
            <mxPoint x="453.25" y="925" as="targetPoint" />
          </mxGeometry>
        </mxCell>
        <mxCell id="mnehjeZ3O1_cwlT7nOx8-3" style="edgeStyle=orthogonalEdgeStyle;rounded=0;orthogonalLoop=1;jettySize=auto;html=1;exitX=0.5;exitY=1;exitDx=0;exitDy=0;entryX=0.5;entryY=0;entryDx=0;entryDy=0;" parent="WIyWlLk6GJQsqaUBKTNV-1" source="mnehjeZ3O1_cwlT7nOx8-0" target="qjvEbnhI41lJ3wAf2mKK-10" edge="1">
          <mxGeometry relative="1" as="geometry" />
        </mxCell>
        <mxCell id="mnehjeZ3O1_cwlT7nOx8-0" value="Names at a higher taxonomic level (e.g. genus lvl) removed alongside obvious cultivars (e.g. Rosa `Wedding Day`) n =" style="rounded=1;whiteSpace=wrap;html=1;fontSize=11.5;" parent="WIyWlLk6GJQsqaUBKTNV-1" vertex="1">
          <mxGeometry x="443.25" y="280" width="350" height="40" as="geometry" />
        </mxCell>
        <mxCell id="7i98zQjU7Vg6heTUtOKW-0" style="edgeStyle=orthogonalEdgeStyle;rounded=0;orthogonalLoop=1;jettySize=auto;html=1;exitX=0.5;exitY=1;exitDx=0;exitDy=0;entryX=0.5;entryY=0;entryDx=0;entryDy=0;" edge="1" parent="WIyWlLk6GJQsqaUBKTNV-1" source="mnehjeZ3O1_cwlT7nOx8-7" target="WIyWlLk6GJQsqaUBKTNV-11">
          <mxGeometry relative="1" as="geometry" />
        </mxCell>
        <mxCell id="mnehjeZ3O1_cwlT7nOx8-7" value="Data obtained from juvenile, immature or unhealthy individuals, moss species and experimental studies was removed, alongside data with obvious nonsensical &#39;species&#39; names, irrelevant subtraits and traits without standardized data (Appendix ..)" style="rounded=1;whiteSpace=wrap;html=1;fontSize=11.5;" parent="WIyWlLk6GJQsqaUBKTNV-1" vertex="1">
          <mxGeometry x="35" y="100" width="760" height="40" as="geometry" />
        </mxCell>
      </root>
    </mxGraphModel>
  </diagram>
  <diagram name="Copy of Page-1" id="V1Adq3vCw6OUW7fzp2VG">
    <mxGraphModel dx="794" dy="420" grid="1" gridSize="10" guides="1" tooltips="1" connect="1" arrows="1" fold="1" page="1" pageScale="1" pageWidth="827" pageHeight="1169" math="0" shadow="0">
      <root>
        <mxCell id="IQxULI4LZFoMfTQjYsOH-0" />
        <mxCell id="IQxULI4LZFoMfTQjYsOH-1" parent="IQxULI4LZFoMfTQjYsOH-0" />
        <mxCell id="IQxULI4LZFoMfTQjYsOH-2" value="" style="rounded=0;html=1;jettySize=auto;orthogonalLoop=1;fontSize=11;endArrow=block;endFill=0;endSize=8;strokeWidth=1;shadow=0;labelBackgroundColor=none;edgeStyle=orthogonalEdgeStyle;entryX=0.5;entryY=0;entryDx=0;entryDy=0;" edge="1" parent="IQxULI4LZFoMfTQjYsOH-1" source="IQxULI4LZFoMfTQjYsOH-3" target="IQxULI4LZFoMfTQjYsOH-6">
          <mxGeometry relative="1" as="geometry">
            <mxPoint x="370" y="170" as="targetPoint" />
          </mxGeometry>
        </mxCell>
        <mxCell id="IQxULI4LZFoMfTQjYsOH-3" value="TRY database (data requested on ...)&amp;nbsp;" style="rounded=1;whiteSpace=wrap;html=1;fontSize=12;glass=0;strokeWidth=1;shadow=0;" vertex="1" parent="IQxULI4LZFoMfTQjYsOH-1">
          <mxGeometry x="160" y="80" width="420" height="40" as="geometry" />
        </mxCell>
        <mxCell id="IQxULI4LZFoMfTQjYsOH-4" value="No" style="rounded=0;html=1;jettySize=auto;orthogonalLoop=1;fontSize=11;endArrow=block;endFill=0;endSize=8;strokeWidth=1;shadow=0;labelBackgroundColor=none;edgeStyle=orthogonalEdgeStyle;" edge="1" parent="IQxULI4LZFoMfTQjYsOH-1" target="IQxULI4LZFoMfTQjYsOH-5">
          <mxGeometry x="0.3333" y="20" relative="1" as="geometry">
            <mxPoint as="offset" />
            <mxPoint x="369.9999999999998" y="410" as="sourcePoint" />
          </mxGeometry>
        </mxCell>
        <mxCell id="IQxULI4LZFoMfTQjYsOH-5" value="Repair Lamp" style="rounded=1;whiteSpace=wrap;html=1;fontSize=12;glass=0;strokeWidth=1;shadow=0;" vertex="1" parent="IQxULI4LZFoMfTQjYsOH-1">
          <mxGeometry x="310" y="470" width="120" height="40" as="geometry" />
        </mxCell>
        <mxCell id="IQxULI4LZFoMfTQjYsOH-6" value="Data set originally contained 94230 &lt;b&gt;Accepted species names &lt;/b&gt;and 36 traits" style="rounded=1;whiteSpace=wrap;html=1;" vertex="1" parent="IQxULI4LZFoMfTQjYsOH-1">
          <mxGeometry x="150" y="150" width="440" height="40" as="geometry" />
        </mxCell>
        <mxCell id="IQxULI4LZFoMfTQjYsOH-7" value="Data set originally contained 94230 &lt;b&gt;Accepted species names &lt;/b&gt;and 36 traits" style="rounded=1;whiteSpace=wrap;html=1;" vertex="1" parent="IQxULI4LZFoMfTQjYsOH-1">
          <mxGeometry x="30" y="230" width="240" height="80" as="geometry" />
        </mxCell>
        <mxCell id="IQxULI4LZFoMfTQjYsOH-8" value="" style="endArrow=classic;html=1;rounded=0;exitX=0.5;exitY=1;exitDx=0;exitDy=0;" edge="1" parent="IQxULI4LZFoMfTQjYsOH-1" source="IQxULI4LZFoMfTQjYsOH-6">
          <mxGeometry width="50" height="50" relative="1" as="geometry">
            <mxPoint x="370" y="290" as="sourcePoint" />
            <mxPoint x="370" y="300" as="targetPoint" />
          </mxGeometry>
        </mxCell>
      </root>
    </mxGraphModel>
  </diagram>
  <diagram id="MxhkNTtKnBGGuOi-4ulL" name="Page-2">
    <mxGraphModel dx="794" dy="420" grid="1" gridSize="10" guides="1" tooltips="1" connect="1" arrows="1" fold="1" page="1" pageScale="1" pageWidth="850" pageHeight="1100" math="0" shadow="0">
      <root>
        <mxCell id="0" />
        <mxCell id="1" parent="0" />
      </root>
    </mxGraphModel>
  </diagram>
</mxfile>
